<svg id="레이어_1" data-name="레이어 1" xmlns="http://www.w3.org/2000/svg" viewBox="0 0 67.68 31.75"><defs><style>.cls-1{fill:#042839;}</style></defs><path class="cls-1" d="M33.93,13.2a3.22,3.22,0,1,0,3.2,3.56v-.68A3.22,3.22,0,0,0,33.93,13.2Z"/><path class="cls-1" d="M20.77,13.2A3.22,3.22,0,1,0,24,16.42,3.22,3.22,0,0,0,20.77,13.2Z"/><path class="cls-1" d="M62,2.8C56.9,2.7,7.51,1.47,7.51,1.47s-4.37-.83-4.37,4S2,21.14,2,21.14s.1,3,3,3.29,50.91,5.4,50.91,5.4,4.17.58,4.91-2S65.63,7,65.63,7,67.1,2.9,62,2.8ZM12.09,20.9a.65.65,0,0,1-1.29,0V11.54a.65.65,0,0,1,1.29,0ZM11.45,9.48a1.11,1.11,0,1,1,0-2.22,1.11,1.11,0,1,1,0,2.22Zm9.32,11.7a4.78,4.78,0,0,1-3.61-1.66V20.9a.65.65,0,0,1-1.29,0V7.52a.65.65,0,0,1,1.29,0v5.8a4.76,4.76,0,1,1,3.61,7.86Zm7.08-.28a.64.64,0,0,1-.64.64.64.64,0,0,1-.64-.64V7.52a.64.64,0,0,1,.64-.64.64.64,0,0,1,.64.64Zm10.89,0a.83.83,0,0,1-1.61,0v-1a4.71,4.71,0,0,1-3.2,1.25,4.76,4.76,0,1,1,3.2-8.28v-.44a.83.83,0,0,1,1.61,0Zm10.81,0a.78.78,0,0,1-1.55,0V16.24a3.22,3.22,0,0,0-6.43.18.7.7,0,0,1,0,.25V20.9a.77.77,0,0,1-1.51,0V12.46a.77.77,0,0,1,1.51,0V13a4.76,4.76,0,0,1,8,3.22V20.9ZM57.9,20A.78.78,0,0,1,58,21.11a.79.79,0,0,1-.61.3.74.74,0,0,1-.47-.16l-4.84-3.71V20.9a.65.65,0,0,1-1.29,0V7.52a.65.65,0,0,1,1.29,0V15L57,11.81a.77.77,0,0,1,1.07.23.76.76,0,0,1-.22,1.07L53,16.27Z"/></svg>